<?xml version="1.0" standalone="no"?>
<!DOCTYPE svg PUBLIC "-//W3C//DTD SVG 20010904//EN"
 "http://www.w3.org/TR/2001/REC-SVG-20010904/DTD/svg10.dtd">
<svg version="1.0" xmlns="http://www.w3.org/2000/svg"
 width="1600.000000pt" height="506.000000pt" viewBox="0 0 1600.000000 506.000000"
 preserveAspectRatio="xMidYMid meet">

<g transform="translate(0.000000,506.000000) scale(0.100000,-0.100000)"
fill="#000000" stroke="none">
<path d="M30 4835 l0 -185 300 0 300 0 0 -890 0 -890 193 2 192 3 3 888 2 887
300 0 300 0 -2 183 -3 182 -792 3 -793 2 0 -185z"/>
<path d="M1875 5008 c-3 -7 -4 -490 -3 -1073 l3 -1060 190 0 190 0 3 458 2
457 485 0 485 0 0 -460 0 -460 193 2 192 3 0 1070 0 1070 -192 3 -193 2 0
-430 0 -430 -485 0 -485 0 -2 428 -3 427 -188 3 c-144 2 -189 0 -192 -10z"/>
<path d="M4070 3945 l0 -1075 775 0 775 0 0 185 0 185 -580 0 -580 0 0 275 0
275 490 0 490 0 0 185 0 185 -490 0 -490 0 0 245 0 245 563 2 562 3 0 180 0
180 -757 3 -758 2 0 -1075z"/>
<path d="M5965 5008 c-3 -7 -4 -490 -3 -1073 l3 -1060 200 0 200 0 5 694 5
694 506 -694 505 -694 190 0 189 0 0 1070 0 1070 -200 0 -200 0 -5 -693 -5
-693 -509 695 -509 696 -184 0 c-138 0 -185 -3 -188 -12z"/>
<path d="M8850 5009 c0 -5 147 -236 328 -511 180 -276 326 -505 325 -510 -2
-4 -160 -253 -353 -552 -192 -300 -350 -550 -350 -556 0 -7 75 -9 231 -8 l231
3 236 382 c131 210 241 381 245 380 4 -1 113 -173 241 -382 l233 -380 236 -3
c130 -1 237 0 237 4 0 3 -160 254 -356 557 -195 303 -353 558 -351 567 2 8
149 239 326 513 176 274 321 500 321 503 0 2 -106 3 -236 2 l-236 -3 -202
-332 c-112 -183 -205 -335 -208 -338 -3 -3 -101 147 -218 335 l-212 340 -234
0 c-157 0 -234 -3 -234 -11z"/>
<path d="M11515 5008 c-3 -7 -4 -490 -3 -1073 l3 -1060 73 -3 72 -3 0 1076 0
1075 -70 0 c-47 0 -72 -4 -75 -12z"/>
<path d="M12470 4750 l0 -260 190 0 190 0 0 45 0 45 -140 0 -140 0 0 65 0 65
121 0 120 0 -3 48 -3 47 -117 3 -118 3 0 54 0 55 140 0 140 0 0 45 0 45 -190
0 -190 0 0 -260z"/>
<path d="M12930 4750 l0 -260 170 0 170 0 0 45 0 45 -120 0 -120 0 0 215 0
215 -50 0 -50 0 0 -260z"/>
<path d="M13340 4750 l0 -260 190 0 190 0 0 45 0 45 -140 0 -140 0 0 65 0 65
115 0 115 0 0 50 0 50 -115 0 -115 0 0 55 0 55 135 0 135 0 0 45 0 45 -185 0
-185 0 0 -260z"/>
<path d="M13750 5003 c0 -5 38 -121 83 -258 l84 -250 53 0 53 0 84 250 c45
137 83 253 83 257 0 5 -22 8 -49 8 l-49 0 -37 -117 c-20 -65 -46 -149 -59
-188 l-23 -70 -60 185 -59 185 -52 3 c-29 2 -52 -1 -52 -5z"/>
<path d="M14342 4983 c-24 -61 -182 -486 -182 -490 0 -2 23 -3 51 -1 l52 3 21
60 21 60 94 0 94 0 22 -60 23 -60 51 -3 c28 -2 51 1 51 5 0 4 -41 122 -92 260
l-93 253 -51 0 c-47 0 -53 -2 -62 -27z m92 -200 l26 -73 -61 0 c-54 0 -60 2
-54 18 3 9 16 45 28 79 12 34 25 59 28 55 4 -4 19 -40 33 -79z"/>
<path d="M14590 4965 l0 -45 75 0 75 0 0 -215 0 -215 50 0 50 0 0 215 0 215
70 0 70 0 0 45 0 45 -195 0 -195 0 0 -45z"/>
<path d="M15040 4750 l0 -260 190 0 190 0 0 45 0 45 -140 0 -140 0 0 65 0 65
121 0 120 0 -3 48 -3 47 -117 3 -118 3 0 54 0 55 135 0 135 0 0 45 0 45 -185
0 -185 0 0 -260z"/>
<path d="M15500 4750 l0 -260 131 0 c148 0 192 10 244 52 62 51 80 99 80 208
0 108 -17 154 -79 208 -49 43 -91 52 -243 52 l-133 0 0 -260z m295 146 c37
-24 55 -73 55 -148 0 -121 -50 -168 -177 -168 l-73 0 0 171 0 172 84 -5 c57
-3 92 -10 111 -22z"/>
<path d="M12475 4197 c-3 -7 -4 -125 -3 -262 l3 -250 145 0 c166 0 208 13 242
75 32 60 19 152 -26 189 -14 12 -14 16 3 38 58 73 19 179 -78 212 -49 16 -280
15 -286 -2z m255 -90 c18 -9 26 -22 28 -47 5 -49 -16 -60 -110 -60 l-78 0 0
60 0 60 68 0 c37 0 78 -6 92 -13z m30 -217 c11 -11 20 -31 20 -45 0 -49 -31
-65 -125 -65 l-85 0 0 65 0 65 85 0 c72 0 88 -3 105 -20z"/>
<path d="M12880 4206 c0 -3 39 -65 88 -138 l87 -133 5 -125 5 -125 48 -3 47
-3 0 118 0 118 95 142 c52 79 95 145 95 148 0 3 -26 5 -57 5 l-58 0 -59 -95
c-32 -52 -60 -95 -62 -95 -1 0 -29 43 -61 95 l-58 95 -57 0 c-32 0 -58 -2 -58
-4z"/>
<path d="M12606 3409 c-80 -19 -126 -74 -126 -149 0 -84 46 -123 183 -155 103
-24 117 -32 117 -72 0 -52 -28 -73 -101 -73 -54 0 -64 3 -90 29 -16 16 -29 39
-29 50 0 18 -6 21 -50 21 -49 0 -50 -1 -50 -30 0 -94 92 -161 217 -159 104 1
159 28 193 95 38 73 16 152 -52 194 -18 11 -67 27 -108 36 -105 23 -130 38
-130 74 0 36 39 60 100 60 33 0 48 -6 71 -29 16 -16 29 -37 29 -45 0 -13 11
-16 51 -16 l52 0 -7 31 c-11 54 -46 100 -93 121 -52 23 -125 30 -177 17z"/>
<path d="M13150 3407 c-129 -36 -202 -132 -202 -268 0 -114 51 -197 149 -245
65 -32 155 -37 215 -11 34 14 37 14 54 -4 13 -14 31 -19 72 -19 l54 0 -36 44
-36 44 32 61 c73 141 16 321 -119 379 -65 27 -129 34 -183 19z m151 -110 c65
-43 96 -146 68 -226 -13 -36 -19 -38 -44 -11 -14 15 -31 20 -72 20 l-55 0 46
-54 c52 -60 49 -66 -33 -66 -95 0 -156 70 -156 180 0 76 22 122 75 157 46 32
124 32 171 0z"/>
<path d="M13570 3206 c0 -113 4 -206 11 -223 14 -38 57 -83 96 -99 48 -21 146
-18 191 5 90 46 102 83 102 321 l0 190 -50 0 -50 0 0 -195 c0 -195 0 -196 -25
-220 -19 -20 -34 -25 -75 -25 -41 0 -56 5 -75 25 -25 24 -25 25 -25 220 l0
195 -50 0 -50 0 0 -194z"/>
<path d="M14176 3333 c-53 -141 -166 -447 -166 -450 0 -2 23 -3 51 -1 l52 3
21 60 21 60 94 0 94 0 22 -60 23 -60 51 -3 c37 -2 51 1 50 10 0 7 -42 123 -92
258 l-92 245 -52 3 -51 3 -26 -68z m108 -160 l26 -73 -61 0 c-45 0 -60 3 -57
13 3 6 16 42 29 79 13 37 27 64 30 60 4 -4 19 -40 33 -79z"/>
<path d="M14550 3140 l0 -260 50 0 50 0 0 85 0 85 40 0 c38 0 43 -4 106 -85
l67 -85 59 0 c68 0 70 -8 -18 105 l-62 81 38 32 c45 38 64 87 58 152 -6 58
-37 104 -88 130 -33 17 -59 20 -170 20 l-130 0 0 -260z m251 157 c42 -32 47
-90 12 -129 -13 -14 -32 -18 -90 -18 l-73 0 0 80 0 80 68 0 c37 0 74 -6 83
-13z"/>
<path d="M15040 3140 l0 -260 190 0 190 0 0 45 0 45 -140 0 -140 0 0 65 0 65
121 0 120 0 -3 48 -3 47 -117 3 -118 3 0 54 0 55 135 0 135 0 0 45 0 45 -185
0 -185 0 0 -260z"/>
<path d="M6283 925 c-81 -23 -132 -52 -199 -117 -103 -99 -151 -222 -142 -367
6 -103 36 -168 104 -230 81 -74 144 -96 279 -95 97 0 118 3 176 28 61 25 178
108 186 131 1 6 -8 23 -21 39 l-23 30 -44 -38 c-24 -20 -73 -52 -109 -69 -60
-30 -72 -32 -170 -32 -88 0 -111 3 -145 21 -119 64 -168 189 -131 334 43 165
166 277 319 288 157 11 249 -84 233 -242 -10 -96 -75 -216 -117 -216 -20 0 -6
95 46 318 5 21 2 22 -50 22 -31 0 -55 -4 -55 -10 0 -6 -13 -1 -29 11 -34 25
-105 28 -149 5 -77 -40 -142 -161 -142 -264 1 -139 92 -213 203 -164 24 11 48
25 52 31 4 8 13 3 26 -13 11 -14 35 -28 54 -32 125 -23 256 152 257 346 1 128
-57 227 -159 272 -60 27 -181 33 -250 13z m82 -295 c23 -25 17 -111 -12 -166
-58 -113 -160 -77 -133 48 24 116 95 173 145 118z"/>
<path d="M4930 613 c0 -297 1 -320 20 -350 19 -31 66 -53 117 -53 44 0 53 10
53 60 0 48 -1 49 -32 52 l-33 3 -3 303 -2 302 -60 0 -60 0 0 -317z"/>
<path d="M11120 865 l0 -65 60 0 60 0 0 65 0 65 -60 0 -60 0 0 -65z"/>
<path d="M3717 864 c-4 -4 -7 -36 -7 -71 l0 -63 -35 0 -35 0 0 -55 0 -55 34 0
34 0 4 -164 c3 -148 5 -167 24 -193 27 -36 91 -57 149 -48 l45 6 0 52 0 52
-42 0 -43 0 -3 148 -3 147 51 0 50 0 0 55 0 55 -50 0 -49 0 -3 68 -3 67 -55 3
c-31 2 -59 0 -63 -4z"/>
<path d="M7677 726 c-92 -25 -157 -114 -165 -228 -12 -169 85 -288 237 -288
158 0 254 101 254 268 -1 127 -61 215 -169 248 -57 17 -93 17 -157 0z m132
-111 c76 -39 82 -228 10 -279 -51 -35 -136 -11 -160 46 -22 51 -17 162 8 196
37 51 90 64 142 37z"/>
<path d="M9350 724 c-55 -17 -72 -30 -99 -74 -26 -44 -27 -95 -1 -137 27 -46
55 -61 163 -87 114 -28 117 -30 117 -62 0 -33 -57 -59 -109 -49 -42 8 -60 21
-72 52 -8 21 -15 23 -70 23 l-62 0 6 -36 c13 -79 83 -132 187 -141 164 -15
278 83 241 207 -15 51 -49 76 -135 100 -151 43 -151 43 -151 70 0 33 42 53 91
44 27 -5 41 -15 56 -40 19 -33 23 -34 79 -34 64 0 68 5 48 57 -36 97 -168 146
-289 107z"/>
<path d="M9870 725 c-105 -33 -164 -121 -165 -245 0 -97 22 -156 79 -208 92
-85 245 -85 334 1 36 35 62 77 62 102 0 12 -12 15 -57 15 -54 0 -60 -2 -86
-35 -33 -42 -78 -53 -130 -32 -37 16 -67 59 -67 97 0 19 5 20 176 20 l177 0
-7 53 c-10 88 -26 127 -68 173 -62 68 -151 89 -248 59z m151 -124 c53 -53 43
-61 -76 -61 l-106 0 16 29 c35 68 115 83 166 32z"/>
<path d="M11492 722 c-105 -38 -155 -117 -156 -247 -1 -165 90 -265 244 -265
104 0 187 53 225 143 l15 37 -64 0 c-60 0 -66 -2 -99 -35 -28 -28 -43 -35 -74
-35 -74 0 -113 52 -113 150 0 33 6 76 14 95 15 35 59 65 96 65 30 0 77 -27 90
-50 9 -17 21 -20 80 -20 l69 0 -10 28 c-15 43 -66 100 -110 122 -58 30 -143
35 -207 12z"/>
<path d="M12065 734 c-131 -33 -196 -118 -196 -257 0 -169 93 -267 252 -267
55 0 127 26 162 58 17 15 67 103 67 117 0 3 -28 5 -63 5 -59 0 -65 -2 -78 -27
-14 -26 -62 -53 -95 -53 -34 0 -83 32 -98 65 -32 66 -35 65 160 65 l177 0 -6
59 c-5 61 -35 142 -65 174 -41 45 -153 77 -217 61z m119 -130 c14 -15 26 -35
26 -45 0 -17 -9 -19 -100 -19 -113 0 -123 8 -71 61 40 40 106 41 145 3z"/>
<path d="M4030 475 l0 -255 59 0 59 0 4 170 c3 169 4 170 30 197 23 22 36 27
78 26 l50 -1 0 59 0 59 -55 0 c-46 0 -60 -4 -80 -24 -24 -24 -24 -24 -27 -2
-3 18 -10 21 -60 24 l-58 3 0 -256z"/>
<path d="M4370 548 c1 -237 14 -278 105 -319 54 -25 103 -24 158 5 44 22 47
22 47 5 0 -16 8 -19 60 -19 l60 0 -2 253 -3 252 -60 0 -60 0 -5 -176 c-4 -152
-8 -180 -23 -197 -24 -27 -65 -33 -104 -17 -44 19 -53 59 -53 243 l0 152 -60
0 -60 0 0 -182z"/>
<path d="M5150 717 c0 -8 43 -118 95 -246 l94 -232 -23 -52 c-30 -67 -47 -81
-90 -73 l-34 7 -4 -48 c-3 -27 -1 -52 2 -56 13 -15 115 -10 148 7 18 9 43 33
56 54 22 33 246 619 246 643 0 6 -26 9 -61 7 l-62 -3 -55 -159 c-42 -119 -58
-154 -64 -140 -4 10 -32 82 -62 159 l-55 140 -65 3 c-51 2 -66 0 -66 -11z"/>
<path d="M6990 725 c0 -4 43 -115 96 -246 l97 -239 -18 -47 c-25 -65 -48 -85
-93 -81 l-37 3 -3 -51 -3 -52 38 -4 c21 -3 57 -1 80 4 78 17 96 49 222 388 63
168 116 311 118 318 4 9 -12 12 -60 12 l-66 0 -52 -160 c-29 -87 -56 -157 -58
-154 -3 3 -33 73 -66 157 l-60 152 -67 3 c-38 2 -68 0 -68 -3z"/>
<path d="M8090 548 c1 -237 14 -278 105 -319 54 -25 103 -24 158 5 44 22 47
22 47 5 0 -16 8 -19 60 -19 l60 0 -2 253 -3 252 -60 0 -60 0 -5 -176 c-4 -152
-8 -180 -23 -197 -35 -39 -115 -32 -140 12 -7 13 -13 84 -15 194 l-4 172 -59
0 -59 0 0 -182z"/>
<path d="M8650 475 l0 -255 59 0 59 0 3 170 c4 169 4 170 31 197 23 22 36 27
78 26 l50 -1 0 59 0 59 -54 0 c-38 0 -60 -6 -79 -20 -25 -20 -25 -20 -30 0 -4
17 -14 20 -61 20 l-56 0 0 -255z"/>
<path d="M10280 475 l0 -255 59 0 60 0 3 170 c3 169 3 170 30 197 23 22 36 27
78 26 l50 -1 0 59 0 59 -54 0 c-38 0 -60 -6 -79 -20 -25 -20 -25 -20 -30 0 -4
17 -14 20 -61 20 l-56 0 0 -255z"/>
<path d="M10599 725 c-4 -3 34 -117 82 -253 49 -136 89 -248 89 -250 0 -2 25
-2 56 0 l56 3 84 239 c46 131 84 245 84 253 0 11 -13 13 -62 11 -56 -3 -62 -5
-69 -28 -4 -14 -27 -85 -49 -159 l-42 -133 -52 158 -52 159 -60 3 c-33 2 -62
0 -65 -3z"/>
<path d="M11120 475 l0 -255 60 0 60 0 0 255 0 255 -60 0 -60 0 0 -255z"/>
</g>
</svg>
